<svg xmlns="http://www.w3.org/2000/svg" style="display:none;">
  <!-- Icon info -->
  <symbol id="info" viewBox="0 0 24 24">
    <path fill="currentColor" d="M12,0A12,12,0,1,0,24,12,12.013,12.013,0,0,0,12,0Zm0,22A10,10,0,1,1,22,12,10.011,10.011,0,0,1,12,22Z"/>
    <path fill="currentColor" d="M12,10H11a1,1,0,0,0,0,2h1v6a1,1,0,0,0,2,0V12A2,2,0,0,0,12,10Z"/>
    <circle fill="currentColor" cx="12" cy="6.5" r="1.5"/>
  </symbol>

  <!-- Icon Studies -->
  <symbol id="studies" viewBox="0 0 512 512">
    <path fill="currentColor" d="M470.549,111.573L313.237,36.629c-34.628-20.684-77.728-21.051-112.704-0.96L41.451,111.573  
    c-0.597,0.299-1.216,0.619-1.792,0.96c-37.752,21.586-50.858,69.689-29.272,107.441c7.317,12.798,18.08,23.284,31.064,30.266  
    l43.883,20.907V375.68c0.026,46.743,30.441,88.039,75.072,101.931c31.059,8.985,63.264,13.384,95.595,13.056  
    c32.326,0.362,64.531-4,95.595-12.949c44.631-13.891,75.046-55.188,75.072-101.931V271.104l42.667-20.395v175.957  
    c0,11.782,9.551,21.333,21.333,21.333c11.782,0,21.333-9.551,21.333-21.333v-256C512.143,145.615,492.363,122.473,470.549,111.573z   
    M384,375.787c0.011,27.959-18.129,52.69-44.8,61.077c-27.046,7.728-55.073,11.479-83.2,11.136  
    c-28.127,0.343-56.154-3.408-83.2-11.136c-26.671-8.388-44.811-33.118-44.8-61.077v-84.309l70.763,33.707  
    c17.46,10.368,37.401,15.816,57.707,15.765c19.328,0.137,38.331-4.98,54.976-14.805L384,291.477V375.787z M452.267,211.733  
    l-160.896,76.8c-22.434,13.063-50.241,12.693-72.32-0.96l-157.419-74.88c-17.547-9.462-24.101-31.357-14.639-48.903  
    c3.2-5.934,7.998-10.853,13.85-14.201l159.893-76.373c22.441-13.034,50.233-12.665,72.32,0.96l157.312,74.944  
    c11.569,6.424,18.807,18.555,18.965,31.787C469.354,193.441,462.9,205.097,452.267,211.733L452.267,211.733z"/>
  </symbol>

  <!-- Icon portfolio -->
  <symbol id="portfolio" viewBox="0 0 24 24"><path fill="currentColor" d="M19,4H17.9A5.009,5.009,0,0,0,13,0H11A5.009,5.009,0,0,0,6.1,4H5A5.006,5.006,0,0,0,0,9V19a5.006,5.006,0,0,0,5,5H19a5.006,5.006,0,0,0,5-5V9A5.006,5.006,0,0,0,19,4ZM11,2h2a3,3,0,0,1,2.816,2H8.184A3,3,0,0,1,11,2ZM5,6H19a3,3,0,0,1,3,3v3H2V9A3,3,0,0,1,5,6ZM19,22H5a3,3,0,0,1-3-3V14h9v1a1,1,0,0,0,2,0V14h9v5A3,3,0,0,1,19,22Z"/></symbol>

  <!-- Icon sun -->
  <symbol id="sun" viewBox="0 0 24 24">
    <path fill="currentColor" d="M23,11H18.92a6.924,6.924,0,0,0-.429-1.607l3.527-2.044a1,1,0,1,0-1-1.731l-3.53,2.047a7.062,7.062,0,0,0-1.149-1.15l2.046-3.531a1,1,0,0,0-1.731-1L14.607,5.509A6.9,6.9,0,0,0,13,5.08V1a1,1,0,0,0-2,0V5.08a6.9,6.9,0,0,0-1.607.429L7.349,1.982a1,1,0,0,0-1.731,1L7.664,6.515a7.062,7.062,0,0,0-1.149,1.15L2.985,5.618a1,1,0,1,0-1,1.731L5.509,9.393A6.924,6.924,0,0,0,5.08,11H1a1,1,0,0,0,0,2H5.08a6.924,6.924,0,0,0,.429,1.607L1.982,16.651a1,1,0,1,0,1,1.731l3.53-2.047a7.062,7.062,0,0,0,1.149,1.15L5.618,21.016a1,1,0,0,0,1.731,1l2.044-3.527A6.947,6.947,0,0,0,11,18.92V23a1,1,0,0,0,2,0V18.92a6.947,6.947,0,0,0,1.607-.429l2.044,3.527a1,1,0,0,0,1.731-1l-2.046-3.531a7.062,7.062,0,0,0,1.149-1.15l3.53,2.047a1,1,0,1,0,1-1.731l-3.527-2.044A6.924,6.924,0,0,0,18.92,13H23A1,1,0,0,0,23,11Z"/>
  </symbol>

  <!-- Icon moon -->
  <symbol id="moon" viewBox="0 0 24 24">
    <path fill="currentColor" d="M14,24A12.013,12.013,0,0,1,2,12C1.847,3.044,12.031-2.985,19.791,1.509l1.553.862-1.543.88c-6.7,3.688-6.21,13.87.8,16.906l1.621.731-1.467,1.006A11.921,11.921,0,0,1,14,24Z"/>
  </symbol>
</svg>